<?xml version="1.0" encoding="UTF-8"?>
<!DOCTYPE svg PUBLIC "-//W3C//DTD SVG 1.1//EN" "http://www.w3.org/Graphics/SVG/1.1/DTD/svg11.dtd">
<svg xmlns="http://www.w3.org/2000/svg" version="1.1" width="490px" height="81px" style="shape-rendering:geometricPrecision; text-rendering:geometricPrecision; image-rendering:optimizeQuality; fill-rule:evenodd; clip-rule:evenodd" xmlns:xlink="http://www.w3.org/1999/xlink">
<g><path style="opacity:0.954" fill="#6f97a7" d="M 29.5,-0.5 C 36.1667,-0.5 42.8333,-0.5 49.5,-0.5C 69.0147,5.86126 79.348,19.3613 80.5,40C 80.0165,55.3109 73.3499,66.9776 60.5,75C 55.8413,77.1579 51.1746,78.9912 46.5,80.5C 42.1667,80.5 37.8333,80.5 33.5,80.5C 16.481,76.4842 5.14769,66.1508 -0.5,49.5C -0.5,43.1667 -0.5,36.8333 -0.5,30.5C 4.06186,14.9376 14.0619,4.60431 29.5,-0.5 Z"/></g>
<g><path style="opacity:0.505" fill="#323332" d="M 417.5,-0.5 C 418.5,-0.5 419.5,-0.5 420.5,-0.5C 421.271,9.99268 422.605,9.99268 424.5,-0.5C 425.167,-0.5 425.833,-0.5 426.5,-0.5C 428.427,10.004 429.761,10.004 430.5,-0.5C 431.5,-0.5 432.5,-0.5 433.5,-0.5C 432.494,3.85788 431.327,8.19122 430,12.5C 429.586,12.9574 429.086,13.2907 428.5,13.5C 427.5,11.5 426.5,9.5 425.5,7.5C 424.682,9.10826 424.015,10.7749 423.5,12.5C 422.726,13.7112 421.893,13.7112 421,12.5C 419.673,8.19122 418.506,3.85788 417.5,-0.5 Z"/></g>
<g><path style="opacity:0.497" fill="#323332" d="M 436.5,-0.5 C 437.833,-0.5 439.167,-0.5 440.5,-0.5C 442.984,1.54517 443.984,4.21184 443.5,7.5C 441.167,7.5 438.833,7.5 436.5,7.5C 436.5,8.5 436.5,9.5 436.5,10.5C 438.57,10.5514 440.403,9.88472 442,8.5C 443.602,9.75866 443.436,11.092 441.5,12.5C 436.395,14.0852 433.729,12.0852 433.5,6.5C 433.695,3.78193 434.695,1.4486 436.5,-0.5 Z M 437.5,2.5 C 438.5,2.5 439.5,2.5 440.5,2.5C 440.5,3.5 440.5,4.5 440.5,5.5C 437.433,5.87946 436.433,4.87946 437.5,2.5 Z"/></g>
<g><path style="opacity:0.539" fill="#323332" d="M 452.5,-0.5 C 454.167,-0.5 455.833,-0.5 457.5,-0.5C 459.436,1.24319 459.77,3.24319 458.5,5.5C 456.135,0.174348 454.135,0.341014 452.5,6C 453.441,11.252 455.441,11.752 458.5,7.5C 460.174,10.7824 459.174,12.7824 455.5,13.5C 453.399,13.3684 451.899,12.3684 451,10.5C 450.013,6.52521 450.513,2.85854 452.5,-0.5 Z"/></g>
<g><path style="opacity:0.54" fill="#323332" d="M 463.5,-0.5 C 465.167,-0.5 466.833,-0.5 468.5,-0.5C 470.506,3.19846 471.006,7.19846 470,11.5C 463.949,15.1074 461.282,13.4408 462,6.5C 463.945,5.13672 466.112,4.30339 468.5,4C 467.953,3.07542 467.287,2.24208 466.5,1.5C 462.113,4.36188 461.113,3.69521 463.5,-0.5 Z M 467.5,6.5 C 468.791,7.54166 468.791,8.70833 467.5,10C 465.926,10.6987 464.593,10.3654 463.5,9C 464.858,8.06564 466.192,7.2323 467.5,6.5 Z"/></g>
<g><path style="opacity:0.47" fill="#323332" d="M 474.5,-0.5 C 476.167,-0.5 477.833,-0.5 479.5,-0.5C 480.11,0.391047 480.443,1.39105 480.5,2.5C 479.07,2.57918 477.736,2.24585 476.5,1.5C 475.833,5.5 475.167,9.5 474.5,13.5C 473.914,13.2907 473.414,12.9574 473,12.5C 471.978,7.87106 472.478,3.53773 474.5,-0.5 Z"/></g>
<g><path style="opacity:0.538" fill="#323332" d="M 482.5,-0.5 C 484.5,-0.5 486.5,-0.5 488.5,-0.5C 488.5,0.166667 488.833,0.5 489.5,0.5C 489.5,2.83333 489.5,5.16667 489.5,7.5C 487.5,7.5 485.5,7.5 483.5,7.5C 483.5,8.5 483.5,9.5 483.5,10.5C 485.718,10.3862 487.718,9.71957 489.5,8.5C 489.5,9.5 489.5,10.5 489.5,11.5C 486.319,14.3319 483.486,13.9985 481,10.5C 480.503,7.85397 480.336,5.1873 480.5,2.5C 481.401,1.70951 482.068,0.709515 482.5,-0.5 Z M 484.5,1.5 C 487.076,1.72175 487.91,3.05509 487,5.5C 484.236,4.97541 483.402,3.64208 484.5,1.5 Z"/></g>
<g><path style="opacity:0.66" fill="#323332" d="M 330.5,1.5 C 334.134,1.15643 335.8,2.82309 335.5,6.5C 335.592,9.32706 334.425,11.3271 332,12.5C 331.228,12.3552 330.561,12.0219 330,11.5C 329.253,8.07639 329.42,4.74306 330.5,1.5 Z"/></g>
<g><path style="opacity:0.769" fill="#323332" d="M 347.5,1.5 C 349.451,1.22672 350.951,1.89339 352,3.5C 352.17,9.19576 352.67,14.8624 353.5,20.5C 363.236,16.136 370.736,18.4694 376,27.5C 377.964,36.5086 377.964,45.5086 376,54.5C 370.14,65.005 361.974,67.1717 351.5,61C 349.57,58.7417 348.07,56.2417 347,53.5C 346.182,36.0929 346.348,18.7596 347.5,1.5 Z M 360.5,23.5 C 370.02,25.5848 373.686,31.5848 371.5,41.5C 371.564,45.9189 371.064,50.2522 370,54.5C 363.99,60.0225 358.323,59.6891 353,53.5C 352.333,45.5 352.333,37.5 353,29.5C 354.542,26.1077 357.042,24.1077 360.5,23.5 Z"/></g>
<g><path style="opacity:1" fill="#f5f7f8" d="M 32.5,12.5 C 37.6551,11.8895 42.3218,13.0562 46.5,16C 51,20.5 55.5,25 60,29.5C 64.2013,35.2567 64.5346,41.2567 61,47.5C 55.8333,52.6667 50.6667,57.8333 45.5,63C 31.8959,68.5743 23.8959,64.0743 21.5,49.5C 21.6857,45.2952 23.3524,41.7952 26.5,39C 18.417,27.9563 20.417,19.1229 32.5,12.5 Z"/></g>
<g><path style="opacity:1" fill="#6f97a7" d="M 46.5,22.5 C 45.8333,23.1667 45.1667,23.8333 44.5,24.5C 38.7113,26.7736 33.878,30.4403 30,35.5C 26.2278,31.3292 25.5612,26.6625 28,21.5C 34.4531,15.9927 40.6198,16.326 46.5,22.5 Z"/></g>
<g><path style="opacity:0.763" fill="#323332" d="M 116.5,80.5 C 114.833,80.5 113.167,80.5 111.5,80.5C 110.363,64.2108 110.196,47.8775 111,31.5C 114.951,18.6146 123.117,15.1146 135.5,21C 137.378,22.5429 138.878,24.3762 140,26.5C 141.58,35.4236 141.913,44.4236 141,53.5C 135.754,64.4572 127.754,67.1239 117,61.5C 116.5,67.8246 116.334,74.1579 116.5,80.5 Z M 121.5,24.5 C 124.518,24.3354 127.518,24.502 130.5,25C 132.667,25.8333 134.167,27.3333 135,29.5C 135.667,37.5 135.667,45.5 135,53.5C 131.938,57.9432 127.771,59.4432 122.5,58C 120,56.8333 118.167,55 117,52.5C 116.333,45.1667 116.333,37.8333 117,30.5C 117.979,28.0324 119.479,26.0324 121.5,24.5 Z"/></g>
<g><path style="opacity:0.75" fill="#323332" d="M 159.5,18.5 C 162.85,18.335 166.183,18.5017 169.5,19C 172.064,20.0623 173.731,21.8956 174.5,24.5C 173.042,28.3297 171.042,28.4964 168.5,25C 165.007,23.9963 161.841,24.4963 159,26.5C 158.667,38.5 158.333,50.5 158,62.5C 156.604,64.5268 154.938,64.8602 153,63.5C 152.333,50.5 152.333,37.5 153,24.5C 154.494,21.6865 156.66,19.6865 159.5,18.5 Z"/></g>
<g><path style="opacity:0.783" fill="#323332" d="M 190.5,18.5 C 207.424,18.2871 213.924,26.6204 210,43.5C 201.919,44.4825 193.752,44.8158 185.5,44.5C 184.56,55.0629 189.226,59.5629 199.5,58C 202.039,55.4607 204.539,52.9607 207,50.5C 208.885,50.8621 209.719,52.0287 209.5,54C 204.75,64.3638 197.084,67.0304 186.5,62C 183.894,60.0616 182.061,57.5616 181,54.5C 180.333,45.5 180.333,36.5 181,27.5C 183.43,23.5657 186.597,20.5657 190.5,18.5 Z M 190.5,24.5 C 201.5,22.8333 206.167,27.5 204.5,38.5C 198.167,38.5 191.833,38.5 185.5,38.5C 184.808,32.9042 186.475,28.2376 190.5,24.5 Z"/></g>
<g><path style="opacity:0.753" fill="#323332" d="M 229.5,18.5 C 235.613,17.4104 240.779,19.077 245,23.5C 245.47,25.5493 244.636,26.8826 242.5,27.5C 240.292,26.1368 237.959,24.9701 235.5,24C 226.893,23.4299 224.56,26.9299 228.5,34.5C 234.034,36.1778 239.367,38.3445 244.5,41C 250.011,47.9421 249.678,54.6088 243.5,61C 232.444,67.2572 224.11,64.7572 218.5,53.5C 219.167,52.1667 220.167,51.1667 221.5,50.5C 223.607,52.5302 225.607,54.6969 227.5,57C 238.006,60.8546 242.839,57.3546 242,46.5C 236.877,43.2339 231.377,40.7339 225.5,39C 221.741,35.2566 220.574,30.7566 222,25.5C 223.767,22.228 226.267,19.8947 229.5,18.5 Z"/></g>
<g><path style="opacity:0.754" fill="#323332" d="M 266.5,18.5 C 278.094,16.4543 285.094,21.1209 287.5,32.5C 287.16,35.0182 285.826,36.1849 283.5,36C 281.929,32.9289 280.429,29.7623 279,26.5C 274.611,24.0512 270.111,23.8845 265.5,26C 264.54,27.4194 263.707,28.9194 263,30.5C 262.333,37.8333 262.333,45.1667 263,52.5C 265.633,57.7315 269.799,59.5649 275.5,58C 279.851,55.635 282.184,51.9683 282.5,47C 284.433,46.2174 285.933,46.7174 287,48.5C 286.063,59.7631 279.896,64.9297 268.5,64C 262.667,62.1667 258.833,58.3333 257,52.5C 256.333,45.1667 256.333,37.8333 257,30.5C 258.194,24.8195 261.36,20.8195 266.5,18.5 Z"/></g>
<g><path style="opacity:0.823" fill="#323332" d="M 305.5,18.5 C 309.605,18.2338 313.605,18.7338 317.5,20C 321.38,22.8472 321.38,25.3472 317.5,27.5C 313.813,24.4013 309.647,23.7346 305,25.5C 303.725,38.0969 303.058,50.7636 303,63.5C 301.667,64.8333 300.333,64.8333 299,63.5C 298.333,50.1667 298.333,36.8333 299,23.5C 300.805,21.1743 302.972,19.5077 305.5,18.5 Z"/></g>
<g><path style="opacity:0.744" fill="#323332" d="M 330.5,18.5 C 332.451,18.2267 333.951,18.8934 335,20.5C 335.667,34.1667 335.667,47.8333 335,61.5C 334.121,64.3463 332.454,65.013 330,63.5C 329.184,48.4255 329.351,33.4255 330.5,18.5 Z"/></g>
<g><path style="opacity:0.765" fill="#323332" d="M 395.5,18.5 C 411.483,17.3219 418.483,24.8219 416.5,41C 418.907,54.4025 413.574,62.2358 400.5,64.5C 387.241,62.3137 383.074,54.9804 388,42.5C 389.833,41.3333 391.667,40.1667 393.5,39C 398.833,37.6667 404.167,36.3333 409.5,35C 410.849,28.2208 408.016,24.7208 401,24.5C 397.08,24.2421 394.247,25.9088 392.5,29.5C 390.955,30.4519 389.288,30.7852 387.5,30.5C 387.395,24.6125 390.061,20.6125 395.5,18.5 Z M 409.5,40.5 C 410.835,45.0736 410.668,49.7403 409,54.5C 404.8,58.7144 399.966,59.5478 394.5,57C 389.981,51.7845 390.647,47.4512 396.5,44C 401.076,43.2498 405.409,42.0832 409.5,40.5 Z"/></g>
<g><path style="opacity:1" fill="#adc4cd" d="M 46.5,22.5 C 47.0431,22.56 47.3764,22.8933 47.5,23.5C 46.675,24.3857 45.675,24.719 44.5,24.5C 45.1667,23.8333 45.8333,23.1667 46.5,22.5 Z"/></g>
<g><path style="opacity:1" fill="#7097a7" d="M 44.5,28.5 C 57.1745,28.9904 61.0078,34.9904 56,46.5C 52.2389,49.2425 48.0722,50.0759 43.5,49C 40.1667,45.6667 36.8333,42.3333 33.5,39C 37.0622,35.2684 40.7288,31.7684 44.5,28.5 Z"/></g>
<g><path style="opacity:1" fill="#7098a7" d="M 29.5,42.5 C 32.6306,45.1288 35.6306,47.9621 38.5,51C 40.579,52.6398 42.9124,53.8064 45.5,54.5C 46.521,55.0016 46.6877,55.6683 46,56.5C 41.4537,60.7488 36.2871,61.5821 30.5,59C 25.5758,53.7743 25.2424,48.2743 29.5,42.5 Z"/></g>
</svg>
