<?xml version="1.0" encoding="UTF-8"?>
<svg width="210px" height="50px" viewBox="0 0 210 50" version="1.1" xmlns="http://www.w3.org/2000/svg" xmlns:xlink="http://www.w3.org/1999/xlink">
    <title>14E4B36D-E294-491F-8585-F110675C19D9</title>
    <defs>
        <polygon id="path-1" points="0 0.0473873239 24.306786 0.0473873239 24.306786 24.5009789 0 24.5009789"></polygon>
        <polygon id="path-3" points="0 49.8152113 209.97375 49.8152113 209.97375 0 0 0"></polygon>
    </defs>
    <g id="Icons" stroke="none" stroke-width="1" fill="none" fill-rule="evenodd">
        <g transform="translate(-189.000000, -120.000000)" id="01-Logos/Full-colour">
            <g transform="translate(189.000000, 120.000000)" id="Group-32">
                <g id="Group-3" transform="translate(0.000000, 0.167324)">
                    <mask id="mask-2" fill="white">
                        <use xlink:href="#path-1"></use>
                    </mask>
                    <g id="Clip-2"></g>
                    <path d="M24.306786,12.2740775 C24.306786,19.0266127 18.865476,24.5009789 12.153456,24.5009789 C5.441226,24.5009789 -8.4e-05,19.0266127 -8.4e-05,12.2740775 C-8.4e-05,5.52154225 5.441226,0.0473873239 12.153456,0.0473873239 C18.865476,0.0473873239 24.306786,5.52154225 24.306786,12.2740775" id="Fill-1" fill="#FFC200" mask="url(#mask-2)"></path>
                </g>
                <path d="M22.174782,16.0200423 C18.604782,16.0200423 15.710562,18.9317324 15.710562,22.5232817 C15.710562,26.1150423 18.604782,29.0265211 22.174782,29.0265211 C25.744782,29.0265211 28.639002,26.1150423 28.639002,22.5232817 C28.639002,18.9317324 25.744782,16.0200423 22.174782,16.0200423 M34.328112,22.5232817 C34.328112,29.2760282 28.886802,34.7499718 22.174782,34.7499718 C15.462762,34.7499718 10.021242,29.2760282 10.021242,22.5232817 C10.021242,15.7705352 15.462762,10.2965915 22.174782,10.2965915 C28.886802,10.2965915 34.328112,15.7705352 34.328112,22.5232817" id="Fill-4" fill="#1D1758"></path>
                <path d="M50.568063,10.3044718 C53.308143,10.3044718 55.503903,11.127993 57.155763,12.7744014 C58.807203,14.4210211 59.633133,16.6154577 59.633133,19.3572887 L59.633133,34.1990493 L53.700843,34.1990493 L53.700843,21.2794014 C53.700843,19.7001761 53.237583,18.4372183 52.312323,17.4907394 C51.386223,16.5446831 50.153103,16.0714437 48.612753,16.0714437 C46.998063,16.0714437 45.691023,16.5596831 44.691423,17.5355282 C43.691403,18.5115845 43.191603,19.7969366 43.191603,21.391162 L43.191603,34.1990493 L37.281363,34.1990493 L37.281363,10.8632746 L43.191603,10.8632746 L43.191603,13.456162 C45.057873,11.3551056 47.516553,10.3044718 50.568063,10.3044718" id="Fill-6" fill="#1D1758"></path>
                <path d="M78.669612,16.8202394 C77.595462,15.9485493 76.340082,15.5127042 74.903472,15.5127042 C73.466652,15.5127042 72.215262,15.9485493 71.148672,16.8202394 C70.082292,17.6919296 69.363672,18.8581268 68.993442,20.3184085 L80.835972,20.3184085 C80.465532,18.8581268 79.743342,17.6919296 78.669612,16.8202394 M87.145842,22.5760141 C87.145842,23.3211549 87.101322,24.021507 87.012492,24.6770704 L69.037962,24.6770704 C69.452502,26.1523521 70.245042,27.3223521 71.415372,28.1864366 C72.585282,29.0507324 74.007192,29.4829859 75.681312,29.4829859 C77.029092,29.4829859 78.265782,29.2110845 79.391592,28.6668592 C80.517192,28.1230563 81.405912,27.4339014 82.057962,26.5993944 L86.012682,30.0863662 C84.782922,31.5614366 83.261262,32.7092535 81.446862,33.5285493 C79.632252,34.3480563 77.650902,34.7579155 75.503442,34.7579155 C73.073952,34.7579155 70.874412,34.221507 68.904612,33.1486901 C66.934602,32.075662 65.394252,30.597 64.283352,28.7116479 C63.172452,26.826507 62.617002,24.7368592 62.617002,22.4418592 C62.617002,20.1768592 63.153552,18.1165775 64.227702,16.2614366 C65.301432,14.4060845 66.782772,12.9498169 68.671302,11.8913662 C70.559832,10.8335493 72.651852,10.3045352 74.947992,10.3045352 C78.428742,10.3045352 81.331992,11.4707324 83.657532,13.8027042 C85.982862,16.1348873 87.145842,19.0592535 87.145842,22.5760141" id="Fill-8" fill="#1D1758"></path>
                <path d="M102.691428,28.9910282 C104.528088,28.9910282 106.049748,28.3764507 107.257248,27.1468732 C108.464328,25.917507 109.068078,24.3790563 109.068078,22.5313099 C109.068078,20.6837746 108.464328,19.1449014 107.257248,17.9155352 C106.049748,16.6859577 104.528088,16.0713803 102.691428,16.0713803 C100.869678,16.0713803 99.351168,16.6899718 98.136738,17.9265211 C96.922098,19.1637042 96.314778,20.6983521 96.314778,22.5313099 C96.314778,24.3640563 96.922098,25.8991268 98.136738,27.1358873 C99.351168,28.3728592 100.869678,28.9910282 102.691428,28.9910282 M103.869108,10.3044085 C105.986958,10.3044085 107.909088,10.8374366 109.634658,11.9026479 C111.360018,12.9682817 112.711998,14.436169 113.689548,16.3060986 C114.667098,18.1764507 115.155768,20.2513099 115.155768,22.5313099 C115.155768,24.8110986 114.667098,26.8863803 113.689548,28.7563099 C112.711998,30.6264507 111.360018,32.0945493 109.634658,33.1597606 C107.909088,34.2247606 105.986958,34.758 103.869108,34.758 C100.817388,34.758 98.299488,33.6403944 96.314778,31.4051831 L96.314778,34.1989859 L90.404748,34.1989859 L90.404748,1.22940845 L96.314778,1.22940845 L96.314778,13.6350423 C98.284788,11.414831 100.802898,10.3044085 103.869108,10.3044085" id="Fill-10" fill="#1D1758"></path>
                <path d="M131.193804,10.4833521 L132.193824,10.4833521 L132.193824,16.6301831 L131.193804,16.6301831 C129.090234,16.6301831 127.450134,17.2113803 126.272454,18.3735634 C125.094984,19.5359577 124.506144,21.1156056 124.506144,23.1122958 L124.506144,34.1989859 L118.596114,34.1989859 L118.596114,10.8632113 L124.506144,10.8632113 L124.506144,13.8809577 C126.283584,11.6159577 128.512524,10.4833521 131.193804,10.4833521" id="Fill-12" fill="#1D1758"></path>
                <mask id="mask-4" fill="white">
                    <use xlink:href="#path-3"></use>
                </mask>
                <g id="Clip-15"></g>
                <path d="M134.31285,34.1991549 L140.22309,34.1991549 L140.22309,10.8633803 L134.31285,10.8633803 L134.31285,34.1991549 Z M139.923,6.34816901 C139.20438,7.06330986 138.31944,7.42098592 137.26776,7.42098592 C136.21587,7.42098592 135.33114,7.06330986 134.61273,6.34816901 C133.89411,5.6328169 133.53522,4.75373239 133.53522,3.71049296 C133.53522,2.66767606 133.89411,1.78816901 134.61273,1.07302817 C135.33114,0.357676056 136.21587,0 137.26776,0 C138.31944,0 139.20438,0.357676056 139.923,1.07302817 C140.6412,1.78816901 141.00051,2.66767606 141.00051,3.71049296 C141.00051,4.75373239 140.6412,5.6328169 139.923,6.34816901 L139.923,6.34816901 Z" id="Fill-14" fill="#1D1758" mask="url(#mask-4)"></path>
                <path d="M154.78785,15.9373099 C153.39555,15.9373099 152.24391,16.3769577 151.33314,17.2560423 C150.42216,18.1355493 149.96667,19.2381549 149.96667,20.5642817 C149.96667,21.890831 150.42216,22.9932254 151.33314,23.8725211 C152.24391,24.7518169 153.39555,25.1910423 154.78785,25.1910423 C156.16545,25.1910423 157.3131,24.7518169 158.23164,23.8725211 C159.14997,22.9932254 159.60924,21.890831 159.60924,20.5642817 C159.60924,19.2381549 159.14997,18.1355493 158.23164,17.2560423 C157.3131,16.3769577 156.16545,15.9373099 154.78785,15.9373099 L154.78785,15.9373099 Z M159.80916,34.1990704 C162.12,34.1990704 164.04171,34.8062535 165.57492,36.020831 C167.10792,37.2351972 168.06678,38.9154085 168.45213,41.0612535 L162.34218,42.7154789 C162.25335,41.8659718 161.87556,41.1878028 161.20902,40.6813944 C160.54248,40.1745634 159.69051,39.9212535 158.65395,39.9212535 L151.05531,39.9212535 C148.89252,39.9212535 147.15582,39.3474507 145.845,38.2000563 C144.53439,37.052662 143.87877,35.5478028 143.87877,33.6848451 C143.87877,32.4930845 144.16374,31.3680845 144.7341,30.3098451 C145.30425,29.2520282 146.0634,28.4249155 147.01155,27.8287183 C144.9525,25.8918169 143.92329,23.4700563 143.92329,20.5642817 C143.92329,17.6287183 144.95649,15.1849859 147.02247,13.232662 C149.08887,11.2805493 151.67733,10.304493 154.78785,10.304493 C156.57999,10.304493 158.2686,10.6697746 159.85368,11.3997042 C160.1943,10.1333662 160.89423,9.13871831 161.95326,8.4155493 C163.01208,7.69301408 164.29728,7.33174648 165.80823,7.33174648 L167.71881,7.33174648 L167.71881,12.8301972 L166.07493,12.8301972 C165.48231,12.8301972 164.96739,12.9795634 164.5308,13.2774507 C164.09358,13.5755493 163.8231,13.9854085 163.71957,14.5068169 C165.05265,16.2501972 165.7194,18.2697042 165.7194,20.5642817 C165.7194,23.4850563 164.67507,25.9213944 162.58662,27.873507 C160.49796,29.825831 157.89858,30.8016761 154.78785,30.8016761 C153.51399,30.8016761 152.24013,30.6081549 150.96648,30.2204789 C150.18108,30.6975211 149.7888,31.3680845 149.7888,32.2319577 C149.7888,32.7985775 150.01833,33.2680141 150.4776,33.6402676 C150.93666,34.0129437 151.52907,34.1990704 152.25504,34.1990704 L159.80916,34.1990704 Z" id="Fill-16" fill="#1D1758" mask="url(#mask-4)"></path>
                <path d="M182.935641,10.3044718 C185.675721,10.3044718 187.871691,11.127993 189.523341,12.7744014 C191.174781,14.4210211 192.000711,16.6154577 192.000711,19.3572887 L192.000711,34.1990493 L186.068421,34.1990493 L186.068421,21.2794014 C186.068421,19.7001761 185.609151,18.4372183 184.690821,17.4907394 C183.772281,16.5446831 182.550291,16.0714437 181.024851,16.0714437 C179.395251,16.0714437 178.077081,16.5596831 177.069921,17.5355282 C176.062551,18.5115845 175.559181,19.7969366 175.559181,21.391162 L175.559181,34.1990493 L169.648941,34.1990493 L169.648941,1.22947183 L175.559181,1.22947183 L175.559181,13.5903169 C177.425451,11.3996831 179.884131,10.3044718 182.935641,10.3044718" id="Fill-17" fill="#1D1758" mask="url(#mask-4)"></path>
                <path d="M209.97375,16.2949648 L203.73045,16.2949648 L203.73045,25.9959507 C203.73045,27.9928521 204.79704,28.9910915 206.93001,28.9910915 C207.83322,28.9910915 208.84794,28.7303873 209.97375,28.2087676 L209.97375,33.7522183 C208.7442,34.4227817 207.30003,34.7580634 205.64124,34.7580634 C203.049,34.7580634 201.09747,34.0617254 199.78665,32.667993 C198.47583,31.2746831 197.82063,29.371162 197.82063,26.957007 L197.82063,16.2949648 L194.13219,16.2949648 L194.13219,10.8632746 L197.82063,10.8632746 L197.82063,4.93975352 L203.73045,4.93975352 L203.73045,10.8632746 L209.97375,10.8632746 L209.97375,16.2949648 Z" id="Fill-18" fill="#1D1758" mask="url(#mask-4)"></path>
                <path d="M10.021347,22.5232394 C10.021347,23.198662 10.078257,23.8603521 10.182837,24.5057746 C10.824387,24.6109859 11.482107,24.6682394 12.153267,24.6682394 C13.460097,24.6682394 14.717367,24.4582394 15.896937,24.0743662 C15.775977,23.5770423 15.710457,23.0579577 15.710457,22.5232394 C15.710457,18.9316901 18.604677,16.02 22.174887,16.02 C22.706187,16.02 23.222367,16.0859155 23.716497,16.2076056 C24.098277,15.0209155 24.306807,13.7558451 24.306807,12.441338 C24.306807,11.7661268 24.249897,11.1044366 24.145317,10.4590141 C23.503767,10.3535915 22.846047,10.2965493 22.174887,10.2965493 C15.462657,10.2965493 10.021347,15.7707042 10.021347,22.5232394" id="Fill-19" fill="#F25618" mask="url(#mask-4)"></path>
                <path d="M46.387341,49.6148028 L46.387341,45.0769859 C46.387341,43.9748028 45.917781,43.5311408 45.021501,43.5311408 C44.224551,43.5311408 43.513071,44.0607887 43.200171,44.3901549 L43.200171,49.6148028 L41.947941,49.6148028 L41.947941,45.0484648 C41.947941,43.9321268 41.435751,43.5311408 40.539471,43.5311408 C39.756801,43.5311408 39.045531,44.0893099 38.760771,44.4043099 L38.760771,49.6148028 L37.508541,49.6148028 L37.508541,42.5719859 L38.760771,42.5719859 L38.760771,43.3306479 C39.116511,43.001493 39.941811,42.3858592 41.037381,42.3858592 C42.090321,42.3858592 42.602511,42.9729718 42.872991,43.4595211 C43.399251,43.0158592 44.338371,42.3858592 45.405591,42.3858592 C46.799991,42.3858592 47.639571,43.1732535 47.639571,44.9195915 L47.639571,49.6148028 L46.387341,49.6148028 Z" id="Fill-20" fill="#F25618" mask="url(#mask-4)"></path>
                <path d="M56.254359,45.3060845 C56.069559,44.2324225 55.485969,43.4167183 54.262509,43.4167183 C53.209359,43.4167183 52.284519,43.9892535 51.999969,45.3060845 L56.254359,45.3060845 Z M57.307299,48.7417183 C56.908929,49.2713662 55.799079,49.815169 54.362049,49.815169 C52.227609,49.815169 50.690829,48.3553099 50.690829,46.1363662 C50.690829,43.9461549 52.156419,42.3859437 54.290649,42.3859437 C56.481999,42.3859437 57.520659,44.1179155 57.520659,45.9789718 L57.520659,46.3510141 L51.957339,46.3510141 C51.957339,46.5229859 51.985899,46.6947465 51.999969,46.7805211 C52.255959,48.1977042 53.380089,48.7700282 54.632319,48.7700282 C55.799079,48.7700282 56.553189,48.2408028 56.866299,47.8970704 L57.307299,48.7417183 Z" id="Fill-21" fill="#F25618" mask="url(#mask-4)"></path>
                <path d="M65.378796,49.6148028 L65.378796,45.6066338 C65.378796,44.232338 65.008776,43.5311408 63.742476,43.5311408 C62.888826,43.5311408 62.134716,44.0893099 61.864236,44.4184648 L61.864236,49.6148028 L60.612216,49.6148028 L60.612216,42.5719859 L61.864236,42.5719859 L61.864236,43.316493 C62.234256,42.9729718 63.030996,42.3858592 64.169406,42.3858592 C65.748816,42.3858592 66.630816,43.1876197 66.630816,44.9768451 L66.630816,49.6148028 L65.378796,49.6148028 Z" id="Fill-22" fill="#F25618" mask="url(#mask-4)"></path>
                <polygon id="Fill-23" fill="#F25618" mask="url(#mask-4)" points="70.476525 49.6148028 70.476525 43.6312817 69.181665 43.6312817 69.181665 42.5861408 70.476525 42.5861408 70.476525 40.1386056 71.728545 40.1386056 71.728545 42.5861408 73.450335 42.5861408 73.450335 43.6312817 71.728545 43.6312817 71.728545 49.6148028"></polygon>
                <path d="M80.269623,46.7806268 C79.899603,46.4512606 79.245243,46.0646408 78.405663,46.0646408 C77.224623,46.0646408 76.641243,46.6802746 76.641243,47.3673169 C76.641243,48.0830915 77.267253,48.7416127 78.476853,48.7416127 C79.245243,48.7416127 79.856973,48.5411197 80.269623,48.2550634 L80.269623,46.7806268 Z M81.479223,48.8704859 C80.867283,49.4001338 79.828413,49.8150634 78.391593,49.8150634 C76.299783,49.8150634 75.346383,48.5983732 75.346383,47.2671761 C75.346383,45.6638662 76.968633,44.9909789 78.234933,44.9909789 C78.903783,44.9909789 79.700523,45.1773169 80.269623,45.6782324 L80.269623,44.8050634 C80.269623,44.0320352 79.686243,43.4595 78.533553,43.4595 C77.622993,43.4595 76.826253,43.7601338 76.584333,43.8746408 L76.171683,42.9296408 C76.712433,42.6864718 77.523453,42.385838 78.604953,42.385838 C80.895633,42.385838 81.479223,43.4738662 81.479223,45.1056972 L81.479223,48.8704859 Z" id="Fill-24" fill="#F25618" mask="url(#mask-4)"></path>
                <polygon id="Fill-25" fill="#F25618" mask="url(#mask-4)" points="84.90069 49.6149296 86.15271 49.6149296 86.15271 37.8766901 84.90069 37.8766901"></polygon>
                <path d="M99.683766,49.6148028 L99.683766,45.6066338 C99.683766,44.232338 99.313956,43.5311408 98.047446,43.5311408 C97.193796,43.5311408 96.439686,44.0893099 96.169206,44.4184648 L96.169206,49.6148028 L94.917186,49.6148028 L94.917186,37.8765634 L96.169206,37.8765634 L96.169206,43.316493 C96.539226,42.9729718 97.335966,42.3858592 98.474376,42.3858592 C100.053786,42.3858592 100.935786,43.1732535 100.935786,44.9768451 L100.935786,49.6148028 L99.683766,49.6148028 Z" id="Fill-26" fill="#F25618" mask="url(#mask-4)"></path>
                <path d="M109.542279,45.3060845 C109.357479,44.2324225 108.774099,43.4167183 107.550429,43.4167183 C106.497489,43.4167183 105.572649,43.9892535 105.287889,45.3060845 L109.542279,45.3060845 Z M110.595429,48.7417183 C110.196849,49.2713662 109.086999,49.815169 107.649969,49.815169 C105.515529,49.815169 103.978959,48.3553099 103.978959,46.1363662 C103.978959,43.9461549 105.444339,42.3859437 107.578779,42.3859437 C109.770129,42.3859437 110.808789,44.1179155 110.808789,45.9789718 L110.808789,46.3510141 L105.245259,46.3510141 C105.245259,46.5229859 105.273819,46.6947465 105.287889,46.7805211 C105.544089,48.1977042 106.668009,48.7700282 107.920239,48.7700282 C109.086999,48.7700282 109.841109,48.2408028 110.154219,47.8970704 L110.595429,48.7417183 Z" id="Fill-27" fill="#F25618" mask="url(#mask-4)"></path>
                <path d="M118.195749,46.7806268 C117.825729,46.4512606 117.171369,46.0646408 116.331999,46.0646408 C115.150959,46.0646408 114.567579,46.6802746 114.567579,47.3673169 C114.567579,48.0830915 115.193589,48.7416127 116.402979,48.7416127 C117.171369,48.7416127 117.783309,48.5411197 118.195749,48.2550634 L118.195749,46.7806268 Z M119.405349,48.8704859 C118.793619,49.4001338 117.754749,49.8150634 116.317719,49.8150634 C114.226119,49.8150634 113.272719,48.5983732 113.272719,47.2671761 C113.272719,45.6638662 114.894759,44.9909789 116.161269,44.9909789 C116.829909,44.9909789 117.626649,45.1773169 118.195749,45.6782324 L118.195749,44.8050634 C118.195749,44.0320352 117.612579,43.4595 116.459889,43.4595 C115.549119,43.4595 114.752589,43.7601338 114.510669,43.8746408 L114.097809,42.9296408 C114.638769,42.6864718 115.449789,42.385838 116.531079,42.385838 C118.821969,42.385838 119.405349,43.4738662 119.405349,45.1056972 L119.405349,48.8704859 Z" id="Fill-28" fill="#F25618" mask="url(#mask-4)"></path>
                <polygon id="Fill-29" fill="#F25618" mask="url(#mask-4)" points="122.82711 49.6149296 124.07913 49.6149296 124.07913 37.8766901 122.82711 37.8766901"></polygon>
                <polygon id="Fill-30" fill="#F25618" mask="url(#mask-4)" points="128.077026 49.6148028 128.077026 43.6312817 126.782166 43.6312817 126.782166 42.5861408 128.077026 42.5861408 128.077026 40.1386056 129.329046 40.1386056 129.329046 42.5861408 131.050836 42.5861408 131.050836 43.6312817 129.329046 43.6312817 129.329046 49.6148028"></polygon>
                <path d="M138.432252,49.6148028 L138.432252,45.6066338 C138.432252,44.232338 138.062232,43.5311408 136.795932,43.5311408 C135.942282,43.5311408 135.188172,44.0893099 134.917692,44.4184648 L134.917692,49.6148028 L133.665672,49.6148028 L133.665672,37.8765634 L134.917692,37.8765634 L134.917692,43.316493 C135.287712,42.9729718 136.084452,42.3858592 137.222862,42.3858592 C138.802272,42.3858592 139.684272,43.1732535 139.684272,44.9768451 L139.684272,49.6148028 L138.432252,49.6148028 Z" id="Fill-31" fill="#F25618" mask="url(#mask-4)"></path>
            </g>
        </g>
    </g>
</svg>